<svg width="64" height="41" viewBox="0 0 64 41" fill="none" xmlns="http://www.w3.org/2000/svg">
<g clip-path="url(#clip0_1964_72586)">
<path d="M32 40.2032C49.6731 40.2032 64 37.0925 64 33.2552C64 29.4179 49.6731 26.3071 32 26.3071C14.3269 26.3071 0 29.4179 0 33.2552C0 37.0925 14.3269 40.2032 32 40.2032Z" fill="#F5F5F5"/>
<path d="M55 14.1653L44.854 2.74866C44.367 1.97048 43.656 1.5 42.907 1.5H21.093C20.344 1.5 19.633 1.97048 19.146 2.74767L9 14.1663V23.3367H55V14.1653Z" stroke="#D9D9D9"/>
<path d="M41.613 17.3128C41.613 15.7197 42.607 14.4046 43.84 14.4036H55V32.4059C55 34.5132 53.68 36.2402 52.05 36.2402H11.95C10.32 36.2402 9 34.5122 9 32.4059V14.4036H20.16C21.393 14.4036 22.387 15.7167 22.387 17.3098V17.3317C22.387 18.9248 23.392 20.2111 24.624 20.2111H39.376C40.608 20.2111 41.613 18.9128 41.613 17.3198V17.3128Z" fill="#FAFAFA" stroke="#D9D9D9"/>
</g>
<defs>
<clipPath id="clip0_1964_72586">
<rect width="64" height="40" fill="white" transform="translate(0 0.5)"/>
</clipPath>
</defs>
</svg>
